<svg xmlns="http://www.w3.org/2000/svg" width="545" height="296" fill="none" xmlns:v="https://vecta.io/nano"><g fill="#fff" stroke="#000"><path d="M76.1 12c0-5.799 4.701-10.5 10.5-10.5h397.075c5.799 0 10.5 4.701 10.5 10.5v267.056a.5.5 0 0 1-.5.5H76.6a.5.5 0 0 1-.5-.5V12zm443.837 267.925v9.951c0 2.205-1.79 3.994-3.995 3.994H55.221c-2.205 0-3.995-1.789-3.995-3.994v-9.951H242.41c1.424 3.243 4.639 5.535 8.431 5.535h69.483c3.79 0 7.004-2.289 8.431-5.535h191.181z" stroke-width="3"/><path d="M529.5 251.986v.065h-45v-61.103l12.777-20.799h0l.005-.009L507 153.944l9.717 16.196h0l.006.009 12.777 20.799v.024.153.152.152.151.151.151.15.15.15.149.149.149.148.148.148.147.147.147.146.146.145.145.145.145.144.144.143.143.143.143.142.142.142.141.141.14.141.14.139.14.139.138.139.138.138.137.138.136.137.136.136.136.136.135.135.134.134.134.134.134.133.133.132.132.133.131.132.131.131.131.13.13.13.13.129.129.129.129.128.128.128.127.128.127.127.126.127.126.126.125.126.125.125.124.125.124.124.124.123.124.123.123.122.123.122.122.122.121.122.121.121.12.121.12.12.12.12.12.119.119.119.119.118.119.118.118.118.117.118.117.117.117.116.117.116.117.116.115.116.116.115.115.115.115.115.114.115.114.114.114.114.113.114.113.113.113.113.113.113.112.113.112.112.112.112.111.112.111.112.111.111.111.111.11.111.11.111.11.11.11.11.11.11.109.11.109.11.109.109.109.109.109.109.108.109.108.109.108.108.108.109.108.108.107.108.108.108.107.108.107.107.108.107.107.107.108.107.107.106.107.107.107.107.106.107.107.106.107.106.107.106.106.107.106.106.107.106.106.106.106.107.106.106.106.106.106.106.106.106.106.106.106.106.106.106.106.106.106.106.107.106.106.106.106.106.106.106.106.106.107.106.106.106.107.106.106.107.106.107.106.107.106.107.106.107.107.107.106.107.107.107.107.107.108.107.107.107.108.107.108.107.108.108.107.108.108.108.108.108.109.108.108.109.109.108.109.109.109.109.109.109.109.11.109.11.11.11.109.111.11.11.11.111.11.111.111.111.111.111.111.112.111.112.112.112.112.112.113.112.113.112.113.113.114.113.113.114.114.114.114.114.114.115.115.115.115.115.115.116.115.116.116.116.117.116.117.117.117.117.118.117.118.118.118.119.118.119.119.119.119.12.119.12.12.121.12.121.121.121.122.121.122.122.122.123.122.123.123.123.124.124.124.124.124.125.125.125.126.125.126.126.126.127.127.127.127.128.128.128.128.129.129.129.129.13.13.13.13.131.131.131.131.132.132.133.132.133.133.134.133.134.135.134.135.135.136.135.136.137.136.137.137.138.138.138.138.139.139.14.139.14.14.141.141.141.142.142.142.142.143.144.143.144.144.145.144.146.145.146.146.147.147.147.148.147.149.148.149.15.149.15.151.151z" stroke-width="2"/></g><path stroke="#000" stroke-width="2" d="M493.9 257.751v4.7m23.5-4.7v4.7m-11.75-4.7v9.4"/><circle cx="507" cy="194.441" r="7.618" fill="#c9f73a"/><g stroke="#000"><path d="M484.1 226.601L470 240.348v21.503l14.1-10.693m45.8-24.557l14.1 13.747v21.503l-14.1-10.693" stroke-width="2"/><circle cx="208" cy="92" transform="rotate(180 208 92)" r="48" stroke-width="8"/></g><path d="M208 140c-26.51 0-48-21.49-48-48s21.49-48 48-48 48 21.49 48 48c0 18.795-10.802 35.067-26.537 42.946" stroke="#c9f73a" stroke-width="8"/><g stroke="#000"><path d="M1 226.064V90h79.291L120 124.705v101.359H1z" fill="#fff" stroke-width="2"/><path d="M39.179 116.338h43.416v1.776H39.179zm0 37.302h43.416v1.776H39.179zm0 35.162h43.416v1.776H39.179zm0-64.135h30.924v1.983H39.179zm0 37.3h30.924v1.983H39.179zm0 35.163h30.924v1.983H39.179z" fill="#000"/><path fill="#c9f73a" d="M16.323 116.72h15.702v15.702H16.323z"/><path d="M20.218 125.01l2.93 2.638 4.981-6.154"/><path fill="#c9f73a" d="M16.323 151.881h15.702v15.702H16.323z"/><path d="M20.218 160.172l2.93 2.637 4.981-6.154"/><path fill="#c9f73a" d="M16.323 188.802h15.702v15.702H16.323z"/><path d="M20.218 197.092l2.93 2.638 4.981-6.154"/><path transform="rotate(270 192.5 237.288)" fill="#c9f73a" d="M192.5 237.288h42.788v170.414H192.5z"/></g><path d="M249.604 209.116h-1.676v14.545h1.676v-14.545zm6.281 14.801c1.903 0 2.897-1.023 3.238-1.733h.085v1.477h1.677v-7.187c0-3.466-2.643-3.864-4.035-3.864-1.647 0-3.522.568-4.375 2.557l1.591.568c.37-.795 1.243-1.648 2.841-1.648 1.541 0 2.301.817 2.301 2.216v.057c0 .81-.823.739-2.812.994-2.024.263-4.233.711-4.233 3.211 0 2.13 1.648 3.352 3.722 3.352zm.255-1.506c-1.335 0-2.301-.596-2.301-1.761 0-1.279 1.165-1.676 2.472-1.847.71-.085 2.613-.284 2.897-.625v1.534c0 1.364-1.079 2.699-3.068 2.699zm14.679-3.21c0 2.045-1.563 2.983-2.813 2.983-1.392 0-2.386-1.023-2.386-2.614v-6.818h-1.676v6.932c0 2.784 1.477 4.119 3.523 4.119 1.647 0 2.727-.881 3.238-1.988h.114v1.846h1.676v-10.909h-1.676v6.449zm6.422-2.102c0-1.904 1.179-2.983 2.784-2.983 1.556 0 2.5 1.015 2.5 2.727v6.818h1.676v-6.932c0-2.784-1.484-4.119-3.693-4.119-1.648 0-2.67.739-3.182 1.847h-.142v-1.705h-1.619v10.909h1.676v-6.562zm14.455 6.789c2.415 0 4.006-1.477 4.29-3.409h-1.676c-.313 1.193-1.307 1.904-2.614 1.904-1.989 0-3.267-1.648-3.267-4.176 0-2.472 1.307-4.091 3.267-4.091 1.477 0 2.358.909 2.614 1.903h1.676c-.284-2.045-2.017-3.409-4.318-3.409-2.955 0-4.915 2.33-4.915 5.653 0 3.267 1.875 5.625 4.943 5.625zm8.416-6.789c0-1.904 1.215-2.983 2.869-2.983 1.577 0 2.529.994 2.529 2.727v6.818h1.676v-6.932c0-2.805-1.491-4.119-3.722-4.119-1.718 0-2.698.717-3.21 1.847h-.142v-5.341h-1.676v14.545h1.676v-6.562z" fill="#000"/><path d="M312 81h10v60h-10zm78 0h10v60h-10z" fill="#c8c9c7"/><path fill="#c9f73a" d="M338 47h10v94h-10z"/><path fill="#c8c9c7" d="M364 101h10v40h-10z"/></svg>