<?xml version="1.0" encoding="utf-8"?>
<!-- Generator: Adobe Illustrator 21.0.0, SVG Export Plug-In . SVG Version: 6.00 Build 0)  -->
<svg version="1.1" id="Logo" xmlns="http://www.w3.org/2000/svg" xmlns:xlink="http://www.w3.org/1999/xlink" x="0px" y="0px"
	 viewBox="0 0 2000 2000" style="enable-background:new 0 0 2000 2000;" xml:space="preserve">
<style type="text/css">
	.st0{fill:#FFFFFF;}
	.st1{fill:url(#SVGID_1_);}
	.st2{fill:url(#SVGID_2_);}
	.st3{fill:url(#SVGID_3_);}
	.st4{fill:url(#SVGID_4_);}
	.st5{fill:url(#SVGID_5_);}
	.st6{fill:url(#SVGID_6_);}
	.st7{fill:url(#SVGID_7_);}
	.st8{fill:url(#SVGID_8_);}
	.st9{fill:url(#SVGID_9_);}
	.st10{fill:url(#SVGID_10_);}
	.st11{fill:url(#SVGID_11_);}
	.st12{fill:url(#SVGID_12_);}
	.st13{fill:url(#SVGID_13_);}
	.st14{fill:url(#SVGID_14_);}
	.st15{fill:url(#SVGID_15_);}
	.st16{fill:url(#SVGID_16_);}
	.st17{fill:url(#SVGID_17_);}
	.st18{fill:url(#SVGID_18_);}
	.st19{fill:url(#SVGID_19_);}
	.st20{fill:url(#SVGID_20_);}
	.st21{fill:url(#SVGID_21_);}
	.st22{fill:url(#SVGID_22_);}
	.st23{fill:url(#SVGID_23_);}
	.st24{fill:url(#SVGID_24_);}
	.st25{fill:url(#SVGID_25_);}
	.st26{fill:url(#SVGID_26_);}
	.st27{fill:url(#SVGID_27_);}
	.st28{fill:url(#SVGID_28_);}
	.st29{fill:url(#SVGID_29_);}
	.st30{fill:url(#SVGID_30_);}
	.st31{fill:url(#SVGID_31_);}
	.st32{fill:url(#SVGID_32_);}
	.st33{fill:url(#SVGID_33_);}
</style>
<g>
	<g>
		<linearGradient id="SVGID_1_" gradientUnits="userSpaceOnUse" x1="630.9326" y1="1156.5404" x2="755.3843" y2="1156.5404">
			<stop  offset="0" style="stop-color:#7C5032"/>
			<stop  offset="0.5" style="stop-color:#DDA071"/>
			<stop  offset="1" style="stop-color:#7C5032"/>
		</linearGradient>
		<circle class="st1" cx="693.2" cy="1156.5" r="62.2"/>
		<linearGradient id="SVGID_2_" gradientUnits="userSpaceOnUse" x1="506.055" y1="999.3053" x2="565.7917" y2="999.3053">
			<stop  offset="0" style="stop-color:#7C5032"/>
			<stop  offset="0.5" style="stop-color:#DDA071"/>
			<stop  offset="1" style="stop-color:#7C5032"/>
		</linearGradient>
		<circle class="st2" cx="535.9" cy="999.3" r="29.9"/>
		<linearGradient id="SVGID_3_" gradientUnits="userSpaceOnUse" x1="192.2691" y1="998.621" x2="252.0059" y2="998.621">
			<stop  offset="0" style="stop-color:#7C5032"/>
			<stop  offset="0.5" style="stop-color:#DDA071"/>
			<stop  offset="1" style="stop-color:#7C5032"/>
		</linearGradient>
		<circle class="st3" cx="222.1" cy="998.6" r="29.9"/>
		<linearGradient id="SVGID_4_" gradientUnits="userSpaceOnUse" x1="503.9801" y1="686.91" x2="563.7169" y2="686.91">
			<stop  offset="0" style="stop-color:#7C5032"/>
			<stop  offset="0.5" style="stop-color:#DDA071"/>
			<stop  offset="1" style="stop-color:#7C5032"/>
		</linearGradient>
		<circle class="st4" cx="533.8" cy="686.9" r="29.9"/>
		<linearGradient id="SVGID_5_" gradientUnits="userSpaceOnUse" x1="818.4503" y1="1001.3801" x2="878.1871" y2="1001.3801">
			<stop  offset="0" style="stop-color:#7C5032"/>
			<stop  offset="0.5" style="stop-color:#DDA071"/>
			<stop  offset="1" style="stop-color:#7C5032"/>
		</linearGradient>
		<circle class="st5" cx="848.3" cy="1001.4" r="29.9"/>
		<linearGradient id="SVGID_6_" gradientUnits="userSpaceOnUse" x1="507.0046" y1="1158.5294" x2="566.7414" y2="1158.5294">
			<stop  offset="0" style="stop-color:#7C5032"/>
			<stop  offset="0.5" style="stop-color:#DDA071"/>
			<stop  offset="1" style="stop-color:#7C5032"/>
		</linearGradient>
		<circle class="st6" cx="536.9" cy="1158.5" r="29.9"/>
		<linearGradient id="SVGID_7_" gradientUnits="userSpaceOnUse" x1="666.2288" y1="999.3053" x2="725.9656" y2="999.3053">
			<stop  offset="0" style="stop-color:#7C5032"/>
			<stop  offset="0.5" style="stop-color:#DDA071"/>
			<stop  offset="1" style="stop-color:#7C5032"/>
		</linearGradient>
		<circle class="st7" cx="696.1" cy="999.3" r="29.9"/>
		<linearGradient id="SVGID_8_" gradientUnits="userSpaceOnUse" x1="506.055" y1="839.1315" x2="565.7917" y2="839.1315">
			<stop  offset="0" style="stop-color:#7C5032"/>
			<stop  offset="0.5" style="stop-color:#DDA071"/>
			<stop  offset="1" style="stop-color:#7C5032"/>
		</linearGradient>
		<circle class="st8" cx="535.9" cy="839.1" r="29.9"/>
		<linearGradient id="SVGID_9_" gradientUnits="userSpaceOnUse" x1="346.8308" y1="998.3557" x2="406.5676" y2="998.3557">
			<stop  offset="0" style="stop-color:#7C5032"/>
			<stop  offset="0.5" style="stop-color:#DDA071"/>
			<stop  offset="1" style="stop-color:#7C5032"/>
		</linearGradient>
		<circle class="st9" cx="376.7" cy="998.4" r="29.9"/>
		<linearGradient id="SVGID_10_" gradientUnits="userSpaceOnUse" x1="506.7393" y1="1313.0912" x2="566.4761" y2="1313.0912">
			<stop  offset="0" style="stop-color:#7C5032"/>
			<stop  offset="0.5" style="stop-color:#DDA071"/>
			<stop  offset="1" style="stop-color:#7C5032"/>
		</linearGradient>
		<circle class="st10" cx="536.6" cy="1313.1" r="29.9"/>
		<linearGradient id="SVGID_11_" gradientUnits="userSpaceOnUse" x1="316.4624" y1="842.0702" x2="440.9141" y2="842.0702">
			<stop  offset="0" style="stop-color:#7C5032"/>
			<stop  offset="0.5" style="stop-color:#DDA071"/>
			<stop  offset="1" style="stop-color:#7C5032"/>
		</linearGradient>
		<circle class="st11" cx="378.7" cy="842.1" r="62.2"/>
		<linearGradient id="SVGID_12_" gradientUnits="userSpaceOnUse" x1="243.7942" y1="933.1769" x2="331.369" y2="933.1769">
			<stop  offset="0" style="stop-color:#7C5032"/>
			<stop  offset="0.5" style="stop-color:#DDA071"/>
			<stop  offset="1" style="stop-color:#7C5032"/>
		</linearGradient>
		<circle class="st12" cx="287.6" cy="933.2" r="43.8"/>
		<linearGradient id="SVGID_13_" gradientUnits="userSpaceOnUse" x1="427.2897" y1="749.6813" x2="514.8646" y2="749.6813">
			<stop  offset="0" style="stop-color:#7C5032"/>
			<stop  offset="0.5" style="stop-color:#DDA071"/>
			<stop  offset="1" style="stop-color:#7C5032"/>
		</linearGradient>
		<circle class="st13" cx="471.1" cy="749.7" r="43.8"/>
		<linearGradient id="SVGID_14_" gradientUnits="userSpaceOnUse" x1="557.2386" y1="754.0874" x2="644.8134" y2="754.0874">
			<stop  offset="0" style="stop-color:#7C5032"/>
			<stop  offset="0.5" style="stop-color:#DDA071"/>
			<stop  offset="1" style="stop-color:#7C5032"/>
		</linearGradient>
		<circle class="st14" cx="601" cy="754.1" r="43.8"/>
		<linearGradient id="SVGID_15_" gradientUnits="userSpaceOnUse" x1="559.3134" y1="1066.4828" x2="646.8882" y2="1066.4828">
			<stop  offset="0" style="stop-color:#7C5032"/>
			<stop  offset="0.5" style="stop-color:#DDA071"/>
			<stop  offset="1" style="stop-color:#7C5032"/>
		</linearGradient>
		<circle class="st15" cx="603.1" cy="1066.5" r="43.8"/>
		<linearGradient id="SVGID_16_" gradientUnits="userSpaceOnUse" x1="424.9585" y1="932.1278" x2="512.5333" y2="932.1278">
			<stop  offset="0" style="stop-color:#7C5032"/>
			<stop  offset="0.5" style="stop-color:#DDA071"/>
			<stop  offset="1" style="stop-color:#7C5032"/>
		</linearGradient>
		<circle class="st16" cx="468.7" cy="932.1" r="43.8"/>
		<linearGradient id="SVGID_17_" gradientUnits="userSpaceOnUse" x1="562.3806" y1="929.0606" x2="649.9554" y2="929.0606">
			<stop  offset="0" style="stop-color:#7C5032"/>
			<stop  offset="0.5" style="stop-color:#DDA071"/>
			<stop  offset="1" style="stop-color:#7C5032"/>
		</linearGradient>
		<circle class="st17" cx="606.2" cy="929.1" r="43.8"/>
		<linearGradient id="SVGID_18_" gradientUnits="userSpaceOnUse" x1="421.8913" y1="1069.5499" x2="509.4661" y2="1069.5499">
			<stop  offset="0" style="stop-color:#7C5032"/>
			<stop  offset="0.5" style="stop-color:#DDA071"/>
			<stop  offset="1" style="stop-color:#7C5032"/>
		</linearGradient>
		<circle class="st18" cx="465.7" cy="1069.5" r="43.8"/>
		<linearGradient id="SVGID_19_" gradientUnits="userSpaceOnUse" x1="242.7684" y1="1068.5576" x2="330.3432" y2="1068.5576">
			<stop  offset="0" style="stop-color:#7C5032"/>
			<stop  offset="0.5" style="stop-color:#DDA071"/>
			<stop  offset="1" style="stop-color:#7C5032"/>
		</linearGradient>
		<circle class="st19" cx="286.6" cy="1068.6" r="43.8"/>
		<g>
			<linearGradient id="SVGID_20_" gradientUnits="userSpaceOnUse" x1="735.4545" y1="932.3033" x2="823.0294" y2="932.3033">
				<stop  offset="0" style="stop-color:#7C5032"/>
				<stop  offset="0.5" style="stop-color:#DDA071"/>
				<stop  offset="1" style="stop-color:#7C5032"/>
			</linearGradient>
			<circle class="st20" cx="779.2" cy="932.3" r="43.8"/>
			<linearGradient id="SVGID_21_" gradientUnits="userSpaceOnUse" x1="423.7435" y1="1244.0144" x2="511.3183" y2="1244.0144">
				<stop  offset="0" style="stop-color:#7C5032"/>
				<stop  offset="0.5" style="stop-color:#DDA071"/>
				<stop  offset="1" style="stop-color:#7C5032"/>
			</linearGradient>
			<circle class="st21" cx="467.5" cy="1244" r="43.8"/>
		</g>
		<linearGradient id="SVGID_22_" gradientUnits="userSpaceOnUse" x1="565.0238" y1="1240.8876" x2="652.5986" y2="1240.8876">
			<stop  offset="0" style="stop-color:#7C5032"/>
			<stop  offset="0.5" style="stop-color:#DDA071"/>
			<stop  offset="1" style="stop-color:#7C5032"/>
		</linearGradient>
		<circle class="st22" cx="608.8" cy="1240.9" r="43.8"/>
		<linearGradient id="SVGID_23_" gradientUnits="userSpaceOnUse" x1="736.9851" y1="1068.9263" x2="824.5599" y2="1068.9263">
			<stop  offset="0" style="stop-color:#7C5032"/>
			<stop  offset="0.5" style="stop-color:#DDA071"/>
			<stop  offset="1" style="stop-color:#7C5032"/>
		</linearGradient>
		<circle class="st23" cx="780.8" cy="1068.9" r="43.8"/>
		<linearGradient id="SVGID_24_" gradientUnits="userSpaceOnUse" x1="314.3876" y1="1158.6152" x2="438.8393" y2="1158.6152">
			<stop  offset="0" style="stop-color:#7C5032"/>
			<stop  offset="0.5" style="stop-color:#DDA071"/>
			<stop  offset="1" style="stop-color:#7C5032"/>
		</linearGradient>
		<circle class="st24" cx="376.6" cy="1158.6" r="62.2"/>
		<linearGradient id="SVGID_25_" gradientUnits="userSpaceOnUse" x1="628.8578" y1="844.145" x2="753.3094" y2="844.145">
			<stop  offset="0" style="stop-color:#7C5032"/>
			<stop  offset="0.5" style="stop-color:#DDA071"/>
			<stop  offset="1" style="stop-color:#7C5032"/>
		</linearGradient>
		<circle class="st25" cx="691.1" cy="844.1" r="62.2"/>
	</g>
	<linearGradient id="SVGID_26_" gradientUnits="userSpaceOnUse" x1="694.0947" y1="689.1642" x2="1151.115" y2="689.1642">
		<stop  offset="0" style="stop-color:#7C5032"/>
		<stop  offset="0.8559" style="stop-color:#DDA071"/>
	</linearGradient>
	<polygon class="st26" points="722.7,753.5 704,734.8 840.4,598.5 1021.7,779.8 984.3,779.8 840.4,635.9 	"/>
	<linearGradient id="SVGID_27_" gradientUnits="userSpaceOnUse" x1="694.0947" y1="1262.6755" x2="1151.115" y2="1262.6755">
		<stop  offset="0" style="stop-color:#7C5032"/>
		<stop  offset="0.8559" style="stop-color:#DDA071"/>
	</linearGradient>
	<polygon class="st27" points="1118.1,1123.8 840.4,1401.5 704,1265.2 722.7,1246.5 840.4,1364.1 1080.6,1123.8 	"/>
	<g>
		<g>
			<linearGradient id="SVGID_28_" gradientUnits="userSpaceOnUse" x1="923.9412" y1="957.8126" x2="1811.3019" y2="957.8126">
				<stop  offset="0" style="stop-color:#7C5032"/>
				<stop  offset="0.5" style="stop-color:#DDA071"/>
				<stop  offset="1" style="stop-color:#7C5032"/>
			</linearGradient>
			<path class="st28" d="M1012.5,896.7h-22.6v-21.1v-46.1h-50.7h-12.8l-22.1,46.1h34.9v21.1v126.6v59.9l73.3,3
				c49.5,0,89.7-40.2,89.7-89.7v-10C1102.2,936.8,1062,896.7,1012.5,896.7z M1051.5,991.4c0,26.9-21.8,48.6-48.6,48.6h-13v-16.7
				v-80.5h13C1029.7,942.8,1051.5,964.5,1051.5,991.4L1051.5,991.4z"/>
			<linearGradient id="SVGID_29_" gradientUnits="userSpaceOnUse" x1="923.9412" y1="957.8126" x2="1811.3019" y2="957.8126">
				<stop  offset="0" style="stop-color:#7C5032"/>
				<stop  offset="0.5" style="stop-color:#DDA071"/>
				<stop  offset="1" style="stop-color:#7C5032"/>
			</linearGradient>
			<path class="st29" d="M1266.2,962c39.2-55.7-0.7-132.5-68.9-132.5h-5.6c-24.1,0-46.6,6.6-65.9,18.1l16,47.2
				c12.3-9.5,27.8-15.1,44.5-15.1c27.9,0,44.3,31.5,28.2,54.3l-37.1,52.8l-21.5,30.6l-15.9,22.6l-25.4,36.1v10h166.9l7.3-46.1h-77.5
				L1266.2,962z"/>
			<linearGradient id="SVGID_30_" gradientUnits="userSpaceOnUse" x1="923.9412" y1="1033.8661" x2="1811.3019" y2="1033.8661">
				<stop  offset="0" style="stop-color:#7C5032"/>
				<stop  offset="0.5" style="stop-color:#DDA071"/>
				<stop  offset="1" style="stop-color:#7C5032"/>
			</linearGradient>
			<path class="st30" d="M1433.9,897.2L1433.9,897.2c-17,0-33.1,4.4-47,12v-12h-50.7v0h-20.7l-22.1,46.1h42.8v51.3
				c0,0.1,0,0.1,0,0.2v91.2v84.4h50.7v-84.4h33.5c48.1,0,87.1-39,87.1-87.1v-28.2C1507.4,930.2,1474.5,897.2,1433.9,897.2z
				 M1449.4,1008.7c0,17.3-14,31.3-31.3,31.3h-31.3v-65.4c0-17.3,14-31.3,31.3-31.3h0c17.3,0,31.3,14,31.3,31.3V1008.7z"/>
			<linearGradient id="SVGID_31_" gradientUnits="userSpaceOnUse" x1="923.9412" y1="1033.8661" x2="1811.3019" y2="1033.8661">
				<stop  offset="0" style="stop-color:#7C5032"/>
				<stop  offset="0.5" style="stop-color:#DDA071"/>
				<stop  offset="1" style="stop-color:#7C5032"/>
			</linearGradient>
			<path class="st31" d="M1734.2,897.2L1734.2,897.2c-17,0-33.1,4.4-47,12v-12h-50.7v0h-20.7l-22.1,46.1h42.8v51.3
				c0,0.1,0,0.1,0,0.2v91.2v84.4h50.7v-84.4h33.5c48.1,0,87.1-39,87.1-87.1v-28.2C1807.7,930.2,1774.8,897.2,1734.2,897.2z
				 M1749.7,1008.7c0,17.3-14,31.3-31.3,31.3h-31.3v-65.4c0-17.3,14-31.3,31.3-31.3h0c17.3,0,31.3,14,31.3,31.3V1008.7z"/>
			<linearGradient id="SVGID_32_" gradientUnits="userSpaceOnUse" x1="923.9412" y1="991.6781" x2="1811.3019" y2="991.6781">
				<stop  offset="0" style="stop-color:#7C5032"/>
				<stop  offset="0.5" style="stop-color:#DDA071"/>
				<stop  offset="1" style="stop-color:#7C5032"/>
			</linearGradient>
			<polygon class="st32" points="1534.2,897.3 1529.3,897.3 1507.1,943.4 1534.2,943.4 1534.2,1086.1 1584.8,1086.1 1584.8,943.4 
				1584.8,897.3 1584.8,897.2 1534.2,897.2 			"/>
			<linearGradient id="SVGID_33_" gradientUnits="userSpaceOnUse" x1="923.9412" y1="855.1436" x2="1811.3019" y2="855.1436">
				<stop  offset="0" style="stop-color:#7C5032"/>
				<stop  offset="0.5" style="stop-color:#DDA071"/>
				<stop  offset="1" style="stop-color:#7C5032"/>
			</linearGradient>
			<rect x="1534.2" y="832.1" class="st33" width="50.6" height="46.1"/>
		</g>
	</g>
</g>
</svg>
